<svg xmlns="http://www.w3.org/2000/svg" width="80" height="95" viewBox="0 0 80 95" fill="none">
  <g filter="url(#filter0_d_37_75)">
    <rect x="4.5" y="15.5" width="71" height="71" rx="4.5" fill="#0A0E68" stroke="white"/>
    <path d="M25.0181 36.8389C25.0181 45.599 32.0958 52.6768 40.8559 52.6768C49.616 52.6768 56.6937 45.599 56.6937 36.8389C56.6937 28.0788 49.616 21.0011 40.8559 21.0011C32.0958 21.0011 25.0181 28.0788 25.0181 36.8389Z" fill="#7CC9EB"/>
    <path d="M34.5325 6.32353C34.5325 9.80438 37.3752 12.6471 40.856 12.6471C44.3368 12.6471 47.1795 9.86239 47.1795 6.32353C47.1795 2.84269 44.3368 0 40.856 0C37.3752 0 34.5325 2.84269 34.5325 6.32353Z" fill="white"/>
    <path d="M19.6809 24.0758C19.6809 35.7947 29.1952 45.251 40.856 45.251C52.5749 45.251 62.0312 35.7367 62.0312 24.0758C62.0312 12.357 52.5169 2.9007 40.856 2.9007C29.1372 2.9007 19.6809 12.357 19.6809 24.0758Z" fill="#7CC9EB"/>
    <path d="M54.0833 7.94792C62.0312 7.94792 68.4128 14.3875 68.4128 22.2774V35.3886C68.4128 43.3365 61.9732 49.718 54.0833 49.718H27.6869C19.739 49.718 13.3574 43.2785 13.3574 35.3886V22.2774C13.3574 14.3295 19.797 7.94792 27.6869 7.94792H54.0833Z" fill="white"/>
    <path d="M52.4588 39.9137H29.4272C28.731 39.9137 28.1509 39.3335 28.1509 38.6374C28.1509 37.9412 28.731 37.3611 29.4272 37.3611H52.5168C53.213 37.3611 53.7931 37.9412 53.7931 38.6374C53.7931 39.3335 53.213 39.9137 52.4588 39.9137Z" fill="#141893"/>
    <path d="M62.3214 27.0345C62.3214 30.9215 59.1886 33.9962 55.3597 33.9962H26.4107C22.5237 33.9962 19.449 30.8635 19.449 27.0345V22.9155C19.449 19.0286 22.5817 15.9539 26.4107 15.9539H55.3017C59.1886 15.9539 62.2634 19.0866 62.2634 22.9155V27.0345H62.3214Z" fill="#141893"/>
    <path d="M24.3799 26.1063C24.3799 28.3109 26.1783 30.0513 28.3248 30.0513C30.5294 30.0513 32.2698 28.2528 32.2698 26.1063C32.2698 23.9018 30.4714 22.1614 28.3248 22.1614C26.1783 22.1614 24.3799 23.9018 24.3799 26.1063Z" fill="#7CC9EB"/>
    <path d="M49.2681 26.1063C49.2681 28.3109 51.0665 30.0513 53.213 30.0513C55.4175 30.0513 57.158 28.2528 57.158 26.1063C57.158 23.9018 55.3595 22.1614 53.213 22.1614C51.0085 22.1614 49.2681 23.9018 49.2681 26.1063Z" fill="#7CC9EB"/>
    <path d="M26.1786 44.0327C26.1786 44.5548 25.7725 44.9029 25.3084 44.9029H24.7862C24.2641 44.9029 23.916 44.4968 23.916 44.0327C23.916 43.5105 24.3221 43.1624 24.7862 43.1624H25.3084C25.7725 43.1624 26.1786 43.5105 26.1786 44.0327Z" fill="#B935B3"/>
    <path d="M29.5433 44.0327C29.5433 44.5548 29.1372 44.9029 28.6731 44.9029H28.151C27.6288 44.9029 27.2808 44.4968 27.2808 44.0327C27.2808 43.5105 27.6869 43.1624 28.151 43.1624H28.6151C29.1372 43.1624 29.5433 43.5105 29.5433 44.0327Z" fill="#B935B3"/>
    <path d="M32.6762 19.8408C32.6762 20.479 32.1541 20.9431 31.5739 20.9431H25.3664C24.7283 20.9431 24.2642 20.4209 24.2642 19.8408C24.2642 19.2026 24.7863 18.7385 25.3664 18.7385H31.6319C32.2121 18.7385 32.6762 19.2607 32.6762 19.8408Z" fill="#7CC9EB"/>
    <path d="M57.4481 19.8408C57.4481 20.479 56.926 20.9431 56.3458 20.9431H50.0803C49.4421 20.9431 48.978 20.4209 48.978 19.8408C48.978 19.2026 49.5002 18.7385 50.0803 18.7385H56.3458C56.926 18.7385 57.4481 19.2607 57.4481 19.8408Z" fill="#7CC9EB"/>
    <path d="M47.2957 61.3789C47.2957 64.8597 50.1383 67.7024 53.6192 67.7024C57.1 67.7024 59.9427 64.8597 59.9427 61.3789C59.9427 57.898 57.1 55.0553 53.6192 55.0553C50.1383 55.0553 47.2957 57.898 47.2957 61.3789Z" fill="#7CC9EB"/>
    <path d="M22.1755 61.3789C22.1755 64.8597 25.0182 67.7024 28.4991 67.7024C31.9799 67.7024 34.8226 64.8597 34.8226 61.3789C34.8226 57.898 31.9799 55.0553 28.4991 55.0553C24.9602 55.0553 22.1755 57.898 22.1755 61.3789Z" fill="#7CC9EB"/>
    <path d="M54.7794 76.6366C54.7794 82.0319 50.3703 86.4409 44.975 86.4409H36.9111C31.5158 86.4409 27.1067 82.0319 27.1067 76.6366V63.6994C27.1067 58.3041 31.5158 53.8951 36.9111 53.8951H44.975C50.3703 53.8951 54.7794 58.3041 54.7794 63.6994V76.6366Z" fill="white"/>
    <path d="M47.5857 76.8106V86.0929C51.7047 84.9326 54.7214 81.1617 54.7214 76.6946V67.4123C50.6604 68.5146 47.5857 72.2855 47.5857 76.8106Z" fill="#E4F4FF"/>
    <path d="M27.1648 67.3543V76.6946C27.1648 81.2197 30.2395 85.0486 34.4746 86.1509V76.8106C34.4746 72.2275 31.3418 68.4566 27.1648 67.3543Z" fill="#E4F4FF"/>
    <path d="M34.9966 64.1635C34.9966 67.4703 37.6652 70.081 40.914 70.081C44.2208 70.081 46.8314 67.4123 46.8314 64.1635C46.8314 60.8567 44.1628 58.2461 40.914 58.2461C37.6652 58.2461 34.9966 60.9147 34.9966 64.1635Z" fill="#C7DFE6"/>
    <path d="M35.8088 64.1635C35.8088 67.0062 38.1294 69.2688 40.9141 69.2688C43.7568 69.2688 46.0193 66.9482 46.0193 64.1635C46.0193 61.3208 43.6987 59.0583 40.9141 59.0583C38.1294 59.0583 35.8088 61.3789 35.8088 64.1635Z" fill="#DBF1FF"/>
    <path d="M37.4331 64.1636C37.4331 66.078 38.9995 67.6444 40.9139 67.6444C42.8284 67.6444 44.3948 66.078 44.3948 64.1636C44.3948 62.2491 42.8284 60.6827 40.9139 60.6827C38.9995 60.6827 37.4331 62.2491 37.4331 64.1636Z" fill="#7CC9EB"/>
    <path d="M39.5217 64.1635C39.5217 64.9757 40.1599 65.6139 40.9721 65.6139C41.7843 65.6139 42.4224 64.9757 42.4224 64.1635C42.4224 63.3514 41.7843 62.7132 40.9721 62.7132C40.1599 62.7712 39.5217 63.4094 39.5217 64.1635Z" fill="#B935B3"/>
    <path d="M11.9999 74.7902C11.9999 76.5887 12.232 78.2131 12.5801 79.5474C12.8121 80.5336 13.7984 81.1138 14.7846 80.8237C15.7708 80.5916 16.351 79.6054 16.0609 78.6192C15.9449 78.097 13.1022 66.4362 23.8348 63.5355C24.821 63.2454 25.3432 62.2592 25.1111 61.331C24.821 60.3447 23.8348 59.8226 22.9066 60.0547C14.2625 62.3752 11.9999 69.2209 11.9999 74.7902Z" fill="white"/>
    <path d="M69.4641 76.0726C69.4826 70.5033 67.1848 63.6499 58.6067 61.2428C57.6215 60.9494 56.6333 61.5263 56.398 62.5117C56.1046 63.497 56.6815 64.4851 57.6669 64.7205C68.4478 67.6571 65.5081 79.3662 65.3905 79.8299C65.1552 80.8154 65.7321 81.8036 66.6595 82.0387C67.645 82.2741 68.6331 81.6972 68.8683 80.7698C69.2204 79.5526 69.4581 77.871 69.4641 76.0726Z" fill="white"/>
    <path d="M15.5138 84.1528C16.9596 84.1626 18.1262 82.9909 18.136 81.545L18.1528 79.4469C18.1626 78.001 16.9909 76.8344 15.545 76.8247L13.4469 76.8078C12.001 76.7981 10.8344 77.9698 10.8247 79.4157L10.8078 81.5138C10.7981 82.9596 11.9698 84.1262 13.4157 84.136L15.5138 84.1528Z" fill="#7CC9EB"/>
    <path d="M68.5138 84.1528C69.9596 84.1626 71.1262 82.9909 71.136 81.545L71.1528 79.4469C71.1626 78.001 69.9909 76.8344 68.545 76.8247L66.4469 76.8078C65.001 76.7981 63.8344 77.9698 63.8247 79.4157L63.8078 81.5138C63.7981 82.9596 64.9698 84.1262 66.4157 84.136L68.5138 84.1528Z" fill="#7CC9EB"/>
  </g>
  <defs>
    <filter id="filter0_d_37_75" x="0" y="0" width="80" height="95" filterUnits="userSpaceOnUse" color-interpolation-filters="sRGB">
      <feFlood flood-opacity="0" result="BackgroundImageFix"/>
      <feColorMatrix in="SourceAlpha" type="matrix" values="0 0 0 0 0 0 0 0 0 0 0 0 0 0 0 0 0 0 127 0" result="hardAlpha"/>
      <feOffset dy="4"/>
      <feGaussianBlur stdDeviation="2"/>
      <feColorMatrix type="matrix" values="0 0 0 0 0 0 0 0 0 0 0 0 0 0 0 0 0 0 0.25 0"/>
      <feBlend mode="normal" in2="BackgroundImageFix" result="effect1_dropShadow_37_75"/>
      <feBlend mode="normal" in="SourceGraphic" in2="effect1_dropShadow_37_75" result="shape"/>
    </filter>
  </defs>
</svg>
