<svg xmlns="http://www.w3.org/2000/svg" xmlns:xlink="http://www.w3.org/1999/xlink" version="1.1" width="68px" height="68px" style="shape-rendering:geometricPrecision; text-rendering:geometricPrecision; image-rendering:optimizeQuality; fill-rule:evenodd; clip-rule:evenodd">
<g><path style="opacity:0.92" fill="#fe8a69" d="M 32.5,15.5 C 29.7492,19.757 26.4158,23.5903 22.5,27C 29.8258,27.4997 37.1591,27.6663 44.5,27.5C 44.6716,28.4916 44.3382,29.1583 43.5,29.5C 36.6866,28.5088 29.6866,28.1755 22.5,28.5C 18.5,28.5 14.5,28.5 10.5,28.5C 10.2627,27.209 10.596,26.209 11.5,25.5C 12.6936,26.7773 14.3603,27.4439 16.5,27.5C 18.1667,27.1667 19.8333,26.8333 21.5,26.5C 20.3906,24.6147 19.5573,22.6147 19,20.5C 18.3292,19.7476 17.4959,19.4142 16.5,19.5C 16.6107,18.8826 16.944,18.3826 17.5,18C 22.4569,16.8416 27.4569,16.0083 32.5,15.5 Z"/></g>
<g><path style="opacity:1" fill="#f63d29" d="M 56.5,27.5 C 52.5,27.5 48.5,27.5 44.5,27.5C 37.1591,27.6663 29.8258,27.4997 22.5,27C 26.4158,23.5903 29.7492,19.757 32.5,15.5C 32.56,14.9569 32.8933,14.6236 33.5,14.5C 38.4747,15.7286 43.4747,16.8953 48.5,18C 51.747,20.7412 54.4137,23.9079 56.5,27.5 Z"/></g>
<g><path style="opacity:1" fill="#ffc8b7" d="M 16.5,19.5 C 17.4959,19.4142 18.3292,19.7476 19,20.5C 19.5573,22.6147 20.3906,24.6147 21.5,26.5C 19.8333,26.8333 18.1667,27.1667 16.5,27.5C 14.3603,27.4439 12.6936,26.7773 11.5,25.5C 13.1964,23.4752 14.863,21.4752 16.5,19.5 Z"/></g>
<g><path style="opacity:0.938" fill="#fe573e" d="M 10.5,28.5 C 14.5,28.5 18.5,28.5 22.5,28.5C 26.112,36.0562 29.4453,43.7229 32.5,51.5C 25.1943,43.8598 17.861,36.1931 10.5,28.5 Z"/></g>
<g><path style="opacity:1" fill="#fba183" d="M 22.5,28.5 C 29.6866,28.1755 36.6866,28.5088 43.5,29.5C 39.9435,36.612 36.9435,43.9454 34.5,51.5C 33.8333,51.5 33.1667,51.5 32.5,51.5C 29.4453,43.7229 26.112,36.0562 22.5,28.5 Z"/></g>
<g><path style="opacity:0.966" fill="#df2220" d="M 44.5,27.5 C 48.5,27.5 52.5,27.5 56.5,27.5C 50.2661,36.4052 42.9328,44.4052 34.5,51.5C 36.9435,43.9454 39.9435,36.612 43.5,29.5C 44.3382,29.1583 44.6716,28.4916 44.5,27.5 Z"/></g>
</svg>
