<svg xmlns="http://www.w3.org/2000/svg" width="127" height="175" viewBox="0 0 127 175" fill="none">
  <g filter="url(#filter0_ddd_33_1484)">
    <path d="M58.294 45.3472C58.8933 52.2798 59.1769 59.3684 59.4612 66.2995C59.6664 73.309 59.7933 80.2395 59.841 87.2483C59.8887 94.2571 59.858 101.187 59.5907 108.194C59.4179 111.658 59.3235 115.202 58.9931 118.665C58.7412 122.208 58.4109 125.671 57.923 129.134C57.5157 132.203 59.629 135.126 62.8559 135.534C65.9253 135.942 68.8483 133.829 69.2563 130.602C69.3375 130.051 69.3396 129.578 69.2626 129.184C68.8055 125.717 68.5849 122.173 68.2853 118.706C68.0647 115.162 67.9226 111.696 67.7804 108.231C67.5752 101.221 67.6059 94.2913 67.7157 87.2832C67.8255 80.275 68.0136 73.346 68.2809 66.3386C68.5482 59.3311 68.9729 52.3244 69.6336 45.3975C69.9625 42.249 67.612 39.5611 64.4635 39.2322C61.315 38.9032 58.6272 41.2538 58.2982 44.4023C58.2184 44.6381 58.2954 45.0322 58.294 45.3472Z" fill="#B935B3"/>
    <path d="M63.0071 65.7639C63.22 71.041 63.4329 76.3181 63.4883 81.5945C63.5437 86.8709 63.599 92.1473 63.6544 97.4237C63.7098 102.7 63.6077 107.976 63.5056 113.251C63.4153 115.85 63.4035 118.527 63.2341 121.204C63.1439 123.802 62.9745 126.479 62.8052 129.156C62.6372 131.517 63.494 133.647 64.831 134.047C66.0895 134.368 67.4355 132.72 67.6035 130.358C67.684 129.965 67.607 129.571 67.6084 129.256C67.4628 126.578 67.238 123.978 67.2499 121.3C67.1826 118.701 67.037 116.023 67.0489 113.346C66.9935 108.07 66.9381 102.793 67.0402 97.5174C67.1423 92.2417 67.2444 86.966 67.3465 81.6903C67.4486 76.4146 67.7082 71.1397 67.9678 65.8647C68.1358 63.5029 67.1215 61.3722 65.8622 61.2092C64.5246 60.967 63.4145 62.6945 63.2465 65.0563C63.0092 65.2915 63.0869 65.528 63.0071 65.7639Z" fill="white" fill-opacity="0.1"/>
    <g filter="url(#filter1_ii_33_1484)">
      <path d="M87.8172 52.2913L87.6857 70.8937C87.6634 74.0467 85.2797 76.7225 82.2016 77.2688L82.4233 45.8968C85.4154 46.3751 87.7612 49.0594 87.8172 52.2913Z" fill="url(#paint0_linear_33_1484)"/>
    </g>
    <g filter="url(#filter2_ii_33_1484)">
      <path d="M45.2991 45.6834L45.1604 77.0247C42.0126 76.5383 39.662 73.8504 39.5976 70.6214L39.6799 52.0371C39.6938 48.8873 42.1472 46.1419 45.2991 45.6834Z" fill="url(#paint1_linear_33_1484)"/>
    </g>
    <path d="M64.8394 43.2501C65.7809 44.0417 66.9617 44.1257 67.437 43.4978C67.9123 42.8699 67.6021 41.7661 66.6607 40.9744C65.7192 40.1828 64.5383 40.0988 64.0631 40.7267C63.5878 41.3546 63.8979 42.4584 64.8394 43.2501Z" fill="#C679C2"/>
    <g filter="url(#filter3_ii_33_1484)">
      <path fill-rule="evenodd" clip-rule="evenodd" d="M64.1197 45.735L81.4267 45.8116C81.5841 45.8123 81.7612 45.8328 81.9383 45.8532L81.9383 45.8532C82.1154 45.8737 82.2925 45.8942 82.45 45.8949L82.3112 77.2362C81.9172 77.3132 81.6022 77.3118 81.2872 77.3104L63.9629 77.2337L63.9631 77.1868L46.0261 77.1073L46.026 77.1073C45.7111 77.1059 45.3961 77.1045 45.1603 77.0248L45.299 45.6835C45.4565 45.6842 45.5944 45.6651 45.7323 45.646C45.8702 45.6269 46.0081 45.6079 46.1656 45.6085L64.1199 45.6881L64.1197 45.735Z" fill="url(#paint2_linear_33_1484)"/>
    </g>
    <path d="M71.2408 44.5435L71.2354 45.7685L56.6467 45.7039L56.6521 44.4789L71.2408 44.5435Z" fill="#8C137A"/>
    <path d="M64.1358 130.973C63.816 132.074 64.2052 133.099 64.8345 133.26C65.4637 133.42 66.3331 132.715 66.653 131.614C66.9728 130.513 66.5836 129.487 65.9544 129.327C65.1676 129.166 64.4557 129.872 64.1358 130.973Z" fill="#C679C2"/>
    <g filter="url(#filter4_ddi_33_1484)">
      <path d="M74.3221 61.7577C74.2976 67.5566 69.5767 72.2377 63.7778 72.2132C57.9788 72.1887 53.2978 67.4678 53.3223 61.6689C53.3468 55.8699 58.0677 51.1888 63.8666 51.2134C69.6655 51.2379 74.3466 55.9588 74.3221 61.7577Z" fill="#FFDF35"/>
    </g>
    <path fill-rule="evenodd" clip-rule="evenodd" d="M59.4834 58.9428L56.3445 61.535C55.9389 61.8705 56.034 62.2072 56.5575 62.2903L59.4964 62.732C59.6017 62.7478 59.6855 62.848 59.6954 62.9537C59.7111 63.1383 59.7588 63.4541 59.9046 63.6757C60.0508 63.8959 60.3307 64.0688 60.4948 64.1586C60.5902 64.2104 60.643 64.3182 60.6152 64.4201L59.8441 67.2501C59.7069 67.7536 59.9827 67.977 60.4577 67.7474L64.1157 65.9697C64.1157 65.9697 64.2439 65.5409 64.2382 64.8759C64.2346 64.4579 64.2042 64.1018 64.1829 63.8963C64.1711 63.7917 64.2449 63.6926 64.349 63.6711C64.8735 63.5612 66.3331 63.1296 67.3755 62.1772C68.6667 60.9977 69.3327 59.9312 69.777 58.8446C69.9419 58.4403 70.0587 57.9585 70.1416 57.5302C70.1899 57.276 70.0167 57.0131 69.7608 56.953C69.3297 56.85 68.8322 56.7547 68.3883 56.74C67.2012 56.6984 65.9414 56.8639 64.3245 57.5473C63.017 58.1008 62.0238 59.2391 61.709 59.667C61.6458 59.7512 61.5242 59.7776 61.4322 59.7252C61.2511 59.6211 60.9338 59.4493 60.5461 59.276C59.9327 59.0025 59.4834 58.9428 59.4834 58.9428ZM64.8879 59.3817C65.0684 58.7192 65.7515 58.3289 66.4144 58.5095C67.0772 58.6901 67.4679 59.373 67.2873 60.0355C67.1068 60.6981 66.4237 61.0884 65.7609 60.9078C65.098 60.7272 64.7074 60.0442 64.8879 59.3817Z" fill="#2D43A7"/>
  </g>
  <defs>
    <filter id="filter0_ddd_33_1484" x="0.597656" y="0.201424" width="126.219" height="174.383" filterUnits="userSpaceOnUse" color-interpolation-filters="sRGB">
      <feFlood flood-opacity="0" result="BackgroundImageFix"/>
      <feColorMatrix in="SourceAlpha" type="matrix" values="0 0 0 0 0 0 0 0 0 0 0 0 0 0 0 0 0 0 127 0" result="hardAlpha"/>
      <feOffset/>
      <feGaussianBlur stdDeviation="19.5"/>
      <feColorMatrix type="matrix" values="0 0 0 0 1 0 0 0 0 1 0 0 0 0 1 0 0 0 1 0"/>
      <feBlend mode="normal" in2="BackgroundImageFix" result="effect1_dropShadow_33_1484"/>
      <feColorMatrix in="SourceAlpha" type="matrix" values="0 0 0 0 0 0 0 0 0 0 0 0 0 0 0 0 0 0 127 0" result="hardAlpha"/>
      <feOffset/>
      <feGaussianBlur stdDeviation="9.5"/>
      <feColorMatrix type="matrix" values="0 0 0 0 0.525 0 0 0 0 0.858333 0 0 0 0 1 0 0 0 1 0"/>
      <feBlend mode="normal" in2="effect1_dropShadow_33_1484" result="effect2_dropShadow_33_1484"/>
      <feColorMatrix in="SourceAlpha" type="matrix" values="0 0 0 0 0 0 0 0 0 0 0 0 0 0 0 0 0 0 127 0" result="hardAlpha"/>
      <feOffset/>
      <feGaussianBlur stdDeviation="4"/>
      <feColorMatrix type="matrix" values="0 0 0 0 1 0 0 0 0 1 0 0 0 0 1 0 0 0 1 0"/>
      <feBlend mode="normal" in2="effect2_dropShadow_33_1484" result="effect3_dropShadow_33_1484"/>
      <feBlend mode="normal" in="SourceGraphic" in2="effect3_dropShadow_33_1484" result="shape"/>
    </filter>
    <filter id="filter1_ii_33_1484" x="82.2017" y="45.8968" width="5.61548" height="31.3719" filterUnits="userSpaceOnUse" color-interpolation-filters="sRGB">
      <feFlood flood-opacity="0" result="BackgroundImageFix"/>
      <feBlend mode="normal" in="SourceGraphic" in2="BackgroundImageFix" result="shape"/>
      <feColorMatrix in="SourceAlpha" type="matrix" values="0 0 0 0 0 0 0 0 0 0 0 0 0 0 0 0 0 0 127 0" result="hardAlpha"/>
      <feOffset/>
      <feGaussianBlur stdDeviation="1"/>
      <feComposite in2="hardAlpha" operator="arithmetic" k2="-1" k3="1"/>
      <feColorMatrix type="matrix" values="0 0 0 0 0.216667 0 0 0 0 0.76424 0 0 0 0 1 0 0 0 1 0"/>
      <feBlend mode="normal" in2="shape" result="effect1_innerShadow_33_1484"/>
      <feColorMatrix in="SourceAlpha" type="matrix" values="0 0 0 0 0 0 0 0 0 0 0 0 0 0 0 0 0 0 127 0" result="hardAlpha"/>
      <feOffset/>
      <feGaussianBlur stdDeviation="1.5"/>
      <feComposite in2="hardAlpha" operator="arithmetic" k2="-1" k3="1"/>
      <feColorMatrix type="matrix" values="0 0 0 0 1 0 0 0 0 1 0 0 0 0 1 0 0 0 1 0"/>
      <feBlend mode="normal" in2="effect1_innerShadow_33_1484" result="effect2_innerShadow_33_1484"/>
    </filter>
    <filter id="filter2_ii_33_1484" x="39.5977" y="45.6834" width="5.70142" height="31.3413" filterUnits="userSpaceOnUse" color-interpolation-filters="sRGB">
      <feFlood flood-opacity="0" result="BackgroundImageFix"/>
      <feBlend mode="normal" in="SourceGraphic" in2="BackgroundImageFix" result="shape"/>
      <feColorMatrix in="SourceAlpha" type="matrix" values="0 0 0 0 0 0 0 0 0 0 0 0 0 0 0 0 0 0 127 0" result="hardAlpha"/>
      <feOffset/>
      <feGaussianBlur stdDeviation="1"/>
      <feComposite in2="hardAlpha" operator="arithmetic" k2="-1" k3="1"/>
      <feColorMatrix type="matrix" values="0 0 0 0 0.107043 0 0 0 0 0.722509 0 0 0 0 0.9875 0 0 0 1 0"/>
      <feBlend mode="normal" in2="shape" result="effect1_innerShadow_33_1484"/>
      <feColorMatrix in="SourceAlpha" type="matrix" values="0 0 0 0 0 0 0 0 0 0 0 0 0 0 0 0 0 0 127 0" result="hardAlpha"/>
      <feOffset/>
      <feGaussianBlur stdDeviation="1"/>
      <feComposite in2="hardAlpha" operator="arithmetic" k2="-1" k3="1"/>
      <feColorMatrix type="matrix" values="0 0 0 0 1 0 0 0 0 1 0 0 0 0 1 0 0 0 1 0"/>
      <feBlend mode="normal" in2="effect1_innerShadow_33_1484" result="effect2_innerShadow_33_1484"/>
    </filter>
    <filter id="filter3_ii_33_1484" x="45.1602" y="45.6085" width="37.2898" height="31.7022" filterUnits="userSpaceOnUse" color-interpolation-filters="sRGB">
      <feFlood flood-opacity="0" result="BackgroundImageFix"/>
      <feBlend mode="normal" in="SourceGraphic" in2="BackgroundImageFix" result="shape"/>
      <feColorMatrix in="SourceAlpha" type="matrix" values="0 0 0 0 0 0 0 0 0 0 0 0 0 0 0 0 0 0 127 0" result="hardAlpha"/>
      <feOffset/>
      <feGaussianBlur stdDeviation="1.5"/>
      <feComposite in2="hardAlpha" operator="arithmetic" k2="-1" k3="1"/>
      <feColorMatrix type="matrix" values="0 0 0 0 0.920833 0 0 0 0 0.976173 0 0 0 0 1 0 0 0 1 0"/>
      <feBlend mode="normal" in2="shape" result="effect1_innerShadow_33_1484"/>
      <feColorMatrix in="SourceAlpha" type="matrix" values="0 0 0 0 0 0 0 0 0 0 0 0 0 0 0 0 0 0 127 0" result="hardAlpha"/>
      <feOffset/>
      <feGaussianBlur stdDeviation="1.5"/>
      <feComposite in2="hardAlpha" operator="arithmetic" k2="-1" k3="1"/>
      <feColorMatrix type="matrix" values="0 0 0 0 0.595833 0 0 0 0 0.878358 0 0 0 0 1 0 0 0 1 0"/>
      <feBlend mode="normal" in2="effect1_innerShadow_33_1484" result="effect2_innerShadow_33_1484"/>
    </filter>
    <filter id="filter4_ddi_33_1484" x="49.3223" y="47.2133" width="29" height="29" filterUnits="userSpaceOnUse" color-interpolation-filters="sRGB">
      <feFlood flood-opacity="0" result="BackgroundImageFix"/>
      <feColorMatrix in="SourceAlpha" type="matrix" values="0 0 0 0 0 0 0 0 0 0 0 0 0 0 0 0 0 0 127 0" result="hardAlpha"/>
      <feOffset/>
      <feGaussianBlur stdDeviation="2"/>
      <feColorMatrix type="matrix" values="0 0 0 0 1 0 0 0 0 1 0 0 0 0 1 0 0 0 1 0"/>
      <feBlend mode="normal" in2="BackgroundImageFix" result="effect1_dropShadow_33_1484"/>
      <feColorMatrix in="SourceAlpha" type="matrix" values="0 0 0 0 0 0 0 0 0 0 0 0 0 0 0 0 0 0 127 0" result="hardAlpha"/>
      <feOffset/>
      <feGaussianBlur stdDeviation="1.5"/>
      <feColorMatrix type="matrix" values="0 0 0 0 1 0 0 0 0 1 0 0 0 0 1 0 0 0 1 0"/>
      <feBlend mode="normal" in2="effect1_dropShadow_33_1484" result="effect2_dropShadow_33_1484"/>
      <feBlend mode="normal" in="SourceGraphic" in2="effect2_dropShadow_33_1484" result="shape"/>
      <feColorMatrix in="SourceAlpha" type="matrix" values="0 0 0 0 0 0 0 0 0 0 0 0 0 0 0 0 0 0 127 0" result="hardAlpha"/>
      <feOffset dy="-1"/>
      <feComposite in2="hardAlpha" operator="arithmetic" k2="-1" k3="1"/>
      <feColorMatrix type="matrix" values="0 0 0 0 0.152941 0 0 0 0 0.223529 0 0 0 0 0.635294 0 0 0 1 0"/>
      <feBlend mode="normal" in2="shape" result="effect3_innerShadow_33_1484"/>
    </filter>
    <linearGradient id="paint0_linear_33_1484" x1="91.4752" y1="53.3357" x2="74.8313" y2="69.8329" gradientUnits="userSpaceOnUse">
      <stop stop-color="#75C5E7"/>
      <stop offset="1" stop-color="#2738A2"/>
    </linearGradient>
    <linearGradient id="paint1_linear_33_1484" x1="36.4205" y1="74.2807" x2="51.7057" y2="47.2721" gradientUnits="userSpaceOnUse">
      <stop stop-color="#212D9D"/>
      <stop offset="1" stop-color="#75C5E7"/>
    </linearGradient>
    <linearGradient id="paint2_linear_33_1484" x1="80.8875" y1="46.2853" x2="45.7567" y2="77.137" gradientUnits="userSpaceOnUse">
      <stop offset="0.0122211" stop-color="#2A68C6"/>
      <stop offset="0.86635" stop-color="#86CEED"/>
    </linearGradient>
  </defs>
</svg>
